<svg id="Lag_1" data-name="Lag 1" xmlns="http://www.w3.org/2000/svg" viewBox="0 0 103.9 103.9"><defs><style>.cls-1{fill:#fff;}.cls-2{fill:#272525;}.cls-3,.cls-4{fill:none;stroke:#272525;stroke-miterlimit:10;}.cls-3{stroke-width:1.5px;}.cls-4{stroke-width:2px;}</style></defs><title>cv-mixer-attenuverting</title><rect class="cls-1" x="16.21" y="16.21" width="71.47" height="71.47" transform="translate(-21.52 51.95) rotate(-45)"/><path class="cls-2" d="M52,2.83,101.07,52,52,101.07,2.83,52,52,2.83M52,0,0,52l52,52L103.9,52,52,0Z"/><g id="resistor"><path class="cls-3" d="M37.39,38.23h5a.87.87,0,0,0,.75-.51l1.05-2.78c.11-.28.28-.28.39,0L46.83,41c.1.28.29.29.41,0l2.69-6.11c.12-.28.34-.29.48,0l3.33,6.15c.14.27.33.25.42,0L56,35c.09-.29.26-.3.38,0L59.08,41c.12.28.31.27.42,0l.87-2.29a.86.86,0,0,1,.74-.51H65a.56.56,0,0,1,.56.55s.14,26,0,26H61.11a.86.86,0,0,0-.74.51l-.87,2.29c-.11.28-.3.29-.42,0l-2.69-6.11c-.12-.28-.29-.27-.38,0l-1.85,6.07c-.09.29-.28.31-.42,0l-3.33-6.15c-.14-.27-.36-.26-.48,0l-2.69,6.11c-.12.28-.31.27-.41,0l-2.27-6.09c-.11-.28-.28-.28-.39,0l-1.05,2.78a.87.87,0,0,1-.75.51h-5"/></g><line class="cls-4" x1="45.38" y1="71.89" x2="51.87" y2="57.05"/><polygon class="cls-2" points="48.47 72.29 43.65 75.83 42.99 69.89 48.47 72.29"/><polygon class="cls-2" points="48.34 56.04 55.02 58.96 53.14 54.16 48.34 56.04"/><line class="cls-4" x1="45.21" y1="45.79" x2="51.71" y2="30.95"/><polygon class="cls-2" points="48.3 46.18 43.48 49.73 42.82 43.78 48.3 46.18"/><polygon class="cls-2" points="48.17 29.94 54.85 32.86 52.97 28.06 48.17 29.94"/><line class="cls-3" x1="65.54" y1="51.28" x2="84.37" y2="51.31"/></svg>