<svg id="Lag_1" data-name="Lag 1" xmlns="http://www.w3.org/2000/svg" viewBox="0 0 84.06 88"><defs><style>.cls-1{fill:#fff;}.cls-2{fill:#272525;}.cls-3{fill:none;stroke:#272525;stroke-miterlimit:10;stroke-width:2px;}</style></defs><title>attenuator</title><polygon class="cls-1" points="0.94 1.56 82.02 44 0.94 86.44 0.94 1.56"/><path class="cls-2" d="M1.89,3.12,80,44,1.89,84.88V3.12M0,0V88L84.06,44,0,0Z"/><line class="cls-3" x1="18.23" y1="61.58" x2="30.5" y2="30.94"/><polygon class="cls-2" points="25.74 29.74 34.77 33.35 32.06 27.03 25.74 29.74"/><g id="resistor"><path class="cls-3" d="M6.75,45.22h7.54a1.5,1.5,0,0,0,1.32-.95l1.85-5.43c.17-.52.46-.52.64,0L22,50.64c.17.52.48.53.68,0l4.67-11.84c.2-.51.56-.52.8,0L34,50.69c.24.5.55.47.7-.06l3.21-11.77c.14-.53.43-.55.63,0l4.66,11.84c.2.51.51.5.69,0l1.53-4.48a1.51,1.51,0,0,1,1.33-.94h7.58"/></g></svg>