<svg id="Lag_1" data-name="Lag 1" xmlns="http://www.w3.org/2000/svg" viewBox="0 0 103.9 103.9"><defs><style>.cls-1{fill:#fff;}.cls-2{fill:#272525;}.cls-3{fill:none;stroke:#272525;stroke-miterlimit:10;stroke-width:2px;}</style></defs><title>cv-attenuator</title><rect class="cls-1" x="16.21" y="16.22" width="71.47" height="71.47" transform="translate(-21.52 51.95) rotate(-45)"/><path class="cls-2" d="M52,2.83,101.07,52,52,101.07,2.83,52,52,2.83M52,0,0,52l52,52L103.9,52,52,0Z"/><line class="cls-3" x1="33.48" y1="70.66" x2="66.89" y2="37.24"/><polygon class="cls-2" points="62.99 34.27 69.86 41.14 69.86 34.27 62.99 34.27"/><g id="resistor"><path class="cls-3" d="M21.88,51.86H36.42a1.5,1.5,0,0,0,1.32-1l1.85-5.42c.18-.53.46-.52.64,0l3.93,11.8c.17.52.48.53.68,0l4.67-11.83c.2-.51.56-.53.8,0l5.77,11.89c.24.5.55.47.7-.06L60,45.5c.14-.53.43-.54.63,0L65.28,57.3c.2.52.51.51.69,0l1.53-4.48a1.51,1.51,0,0,1,1.33-1H81.41"/></g></svg>