<svg id="Lag_1" data-name="Lag 1" xmlns="http://www.w3.org/2000/svg" viewBox="0 0 84.06 88"><defs><style>.cls-1{fill:#fff;}.cls-2{fill:#272525;}.cls-3,.cls-4{fill:none;stroke:#272525;stroke-linecap:round;stroke-linejoin:round;stroke-width:1.5px;}.cls-4{stroke-dasharray:2.92 2.92;}</style></defs><title>chorus</title><polygon class="cls-1" points="1 1.65 81.9 44 1 86.35 1 1.65"/><path class="cls-2" d="M2,3.3,79.75,44,2,84.7V3.3M0,0V88L84.06,44,0,0Z"/><path class="cls-3" d="M8.76,41.52C11.33,35.73,13.9,30,17.32,30c3,0,5.71,5.78,8.53,11.57S31.6,53.09,35,53.09,41,47.41,43.52,41.68"/><path class="cls-4" d="M26.35,41.52C28.92,35.73,31.49,30,34.92,30c6,0,10.85,23.14,17.7,23.14,3.4,0,6-5.68,8.5-11.41"/><line class="cls-3" x1="13.79" y1="58.69" x2="32.99" y2="58.69"/><polygon class="cls-2" points="14.28 55.05 14.28 62.32 10.64 58.69 14.28 55.05"/><polygon class="cls-2" points="32.5 55.05 32.5 62.32 36.13 58.69 32.5 55.05"/></svg>