<svg id="Lag_1" data-name="Lag 1" xmlns="http://www.w3.org/2000/svg" viewBox="0 0 84.06 88"><defs><style>.cls-1{fill:#fff;}.cls-2{fill:#272525;}.cls-3,.cls-4,.cls-5,.cls-6,.cls-7,.cls-8{fill:none;stroke:#272525;}.cls-3,.cls-4,.cls-5,.cls-6,.cls-7{stroke-linecap:round;stroke-linejoin:round;}.cls-3{stroke-dasharray:3.16 3.16;}.cls-5{stroke-dasharray:2.73 2.73;}.cls-6{stroke-dasharray:3 3;}.cls-7{stroke-dasharray:2.95 2.95;}.cls-8{stroke-miterlimit:10;stroke-width:2px;}</style></defs><title>clipper</title><polygon class="cls-1" points="1 1.65 81.9 44 1 86.35 1 1.65"/><path class="cls-2" d="M2,3.3,79.75,44,2,84.7V3.3M0,0V88L84.06,44,0,0Z"/><line class="cls-3" x1="7.12" y1="34.41" x2="54.09" y2="34.41"/><line class="cls-3" x1="5.07" y1="52.41" x2="52.03" y2="52.41"/><line class="cls-4" x1="7.32" y1="45.52" x2="7.98" y2="44.22"/><line class="cls-5" x1="9.21" y1="41.79" x2="16.01" y2="28.41"/><polyline class="cls-4" points="16.63 27.19 17.29 25.89 18.12 27.09"/><line class="cls-6" x1="19.84" y1="29.55" x2="39.52" y2="57.82"/><polyline class="cls-4" points="40.38 59.05 41.21 60.25 42.06 59.06"/><line class="cls-7" x1="43.79" y1="56.67" x2="49.82" y2="48.31"/><line class="cls-4" x1="50.68" y1="47.12" x2="51.54" y2="45.93"/><polyline class="cls-8" points="51.87 45.49 46.92 52.35 35.71 52.35 31.19 45.86 23.21 34.39 13 34.39 7 46.28"/></svg>