<svg id="Lag_1" data-name="Lag 1" xmlns="http://www.w3.org/2000/svg" viewBox="0 0 103.9 103.9"><defs><style>.cls-1{fill:#fff;}.cls-2{fill:#272525;}</style></defs><title>clock-divider</title><rect class="cls-1" x="16.22" y="16.21" width="71.47" height="71.47" transform="translate(-21.52 51.95) rotate(-45)"/><path class="cls-2" d="M52,2.83,101.07,52,52,101.07,2.83,52,52,2.83M52,0,0,52l52,52L103.9,52,52,0Z"/><path class="cls-2" d="M73.37,54.37H53.91v-3H73.37Zm-7.32-7.66a2.37,2.37,0,0,1-.69,1.69,2.41,2.41,0,0,1-3.44,0,2.43,2.43,0,0,1,0-3.37,2.41,2.41,0,0,1,3.44,0A2.35,2.35,0,0,1,66.05,46.71Zm0,12.47a2.39,2.39,0,0,1-.69,1.69,2.41,2.41,0,0,1-3.44,0,2.42,2.42,0,0,1-.68-1.69,2.38,2.38,0,0,1,.68-1.68,2.41,2.41,0,0,1,3.44,0A2.35,2.35,0,0,1,66.05,59.18Z"/><path class="cls-2" d="M45.44,32.66H43.86V57.37a8.47,8.47,0,0,0-6.59-.3c-3.73,1.16-6.17,4-5.46,6.25s4.32,3.19,8,2c3.24-1,5.5-3.25,5.58-5.32h0Z"/></svg>