<svg id="Lag_1" data-name="Lag 1" xmlns="http://www.w3.org/2000/svg" viewBox="0 0 103.9 103.9"><defs><style>.cls-1{fill:#fff;}.cls-2{fill:#272525;}</style></defs><title>clock-multiplier</title><rect class="cls-1" x="16.22" y="16.21" width="71.47" height="71.47" transform="translate(-21.52 51.95) rotate(-45)"/><path class="cls-2" d="M52,2.83,101.07,52,52,101.07,2.83,52,52,2.83M52,0,0,52l52,52L103.9,52,52,0Z"/><path class="cls-2" d="M45.44,32.66H43.86V57.37a8.47,8.47,0,0,0-6.59-.3c-3.73,1.16-6.17,4-5.46,6.25s4.32,3.19,8,2c3.24-1,5.5-3.25,5.58-5.32h0Z"/><path class="cls-2" d="M62.34,50.65l5.81-5.81L70.29,47l-5.81,5.8,5.81,5.81-2.14,2.15-5.81-5.81-5.81,5.81L54.39,58.6l5.8-5.81L54.39,47l2.14-2.14Z"/></svg>