<svg id="Lag_1" data-name="Lag 1" xmlns="http://www.w3.org/2000/svg" viewBox="0 0 80 80"><defs><style>.cls-1{fill:#fff;}.cls-2{fill:#272525;}.cls-3{fill:none;stroke:#272425;stroke-miterlimit:10;stroke-width:1.5px;}</style></defs><title>seq-cv-gate</title><rect class="cls-1" x="1" y="1" width="78" height="78"/><path class="cls-2" d="M78,2V78H2V2H78m2-2H0V80H80V0Z"/><circle class="cls-3" cx="14.11" cy="29.75" r="5.75"/><line class="cls-3" x1="14.11" y1="29.01" x2="14.11" y2="24"/><circle class="cls-3" cx="31.37" cy="29.75" r="5.75"/><line class="cls-3" x1="30.85" y1="29.23" x2="27.3" y2="25.68"/><circle class="cls-3" cx="48.63" cy="29.75" r="5.75"/><line class="cls-3" x1="49" y1="29.11" x2="51.51" y2="24.77"/><circle class="cls-3" cx="65.89" cy="29.75" r="5.75"/><line class="cls-3" x1="66.53" y1="29.38" x2="70.87" y2="26.88"/><circle class="cls-3" cx="14.11" cy="50.25" r="5.75"/><line class="cls-3" x1="14.59" y1="49.68" x2="17.81" y2="45.84"/><circle class="cls-3" cx="31.37" cy="50.25" r="5.75"/><line class="cls-3" x1="32.11" y1="50.25" x2="37.12" y2="50.25"/><circle class="cls-3" cx="48.63" cy="50.25" r="5.75"/><line class="cls-3" x1="48.11" y1="49.72" x2="44.56" y2="46.18"/><circle class="cls-3" cx="65.89" cy="50.25" r="5.75"/><line class="cls-3" x1="65.89" y1="49.51" x2="65.89" y2="44.49"/></svg>