<svg id="Lag_1" data-name="Lag 1" xmlns="http://www.w3.org/2000/svg" viewBox="0 0 80 80"><defs><style>.cls-1{fill:#fff;}.cls-2{fill:#272525;}.cls-3,.cls-4{fill:none;stroke:#272525;stroke-linecap:round;stroke-linejoin:round;}.cls-3{stroke-width:2px;}.cls-4{stroke-width:0.75px;}</style></defs><title>envelope-follower</title><rect class="cls-1" x="1" y="1" width="78" height="78"/><path class="cls-2" d="M78,2V78H2V2H78m2-2H0V80H80V0Z"/><path class="cls-3" d="M10.56,39.87h5.19s5.18-17.62,18.32-17.62C45.48,22.25,54.6,34.9,62.22,40h7.22"/><path class="cls-4" d="M12.64,43.18s6.21,0,6.1.09l1.67-7.13,1.68,11.33L24.4,29.84l1.89,21.82,2.52-25.38,1.26,32.1,2.09-33.57,1.89,31.05,2-30.21,1.58,27.9,2.14-26.66L41,55.35,43.16,29l1.75,23.72,1.73-21.15,1.68,18.67L50.14,34.3s2,13.17,2.17,12.54S53.78,38,53.78,38l1.79,6.27L57,40.44l3,2.83h8.08"/></svg>