<svg id="Lag_1" data-name="Lag 1" xmlns="http://www.w3.org/2000/svg" viewBox="0 0 103.9 103.9"><defs><style>.cls-1{fill:#fff;}.cls-2{fill:#272525;}.cls-3,.cls-4,.cls-5{fill:none;}.cls-3,.cls-4{stroke:#272525;stroke-miterlimit:10;}.cls-4,.cls-5{stroke-dasharray:4 4;}.cls-5{stroke:#272425;stroke-linecap:round;stroke-linejoin:round;}</style></defs><title>gate-delay</title><rect class="cls-1" x="16.21" y="16.22" width="71.47" height="71.47" transform="translate(-21.52 51.95) rotate(-45)"/><path class="cls-2" d="M52,2.83,101.07,52,52,101.07,2.83,52,52,2.83M52,0,0,52l52,52L103.9,52,52,0Z"/><line class="cls-3" x1="67.99" y1="68.07" x2="86.31" y2="68.07"/><line class="cls-4" x1="44.57" y1="68.07" x2="67.99" y2="68.07"/><polyline class="cls-4" points="17.31 68.07 34.47 68.07 37.37 68.07"/><line class="cls-3" x1="47.67" y1="51.95" x2="56.37" y2="51.95"/><polygon class="cls-2" points="56.04 49.52 56.04 54.38 58.47 51.95 56.04 49.52"/><polyline class="cls-5" points="37.37 68.07 37.37 30.94 44.57 30.94 44.57 68.07"/><rect class="cls-3" x="60.79" y="30.94" width="7.2" height="37.13"/></svg>