<svg id="Lag_1" data-name="Lag 1" xmlns="http://www.w3.org/2000/svg" viewBox="0 0 80 80"><defs><style>.cls-1{fill:#fff;}.cls-2{fill:#272525;}.cls-3{fill:none;stroke:#272525;stroke-linecap:round;stroke-linejoin:round;stroke-width:2.19px;}</style></defs><title>granular-synth</title><g id="circle"><circle class="cls-1" cx="40" cy="40" r="39"/><path class="cls-2" d="M40,2A38,38,0,1,1,2,40,38,38,0,0,1,40,2m0-2A40,40,0,1,0,80,40,40,40,0,0,0,40,0Z"/></g><line class="cls-3" x1="18.07" y1="30.17" x2="26.08" y2="30.17"/><line class="cls-3" x1="21.07" y1="35.1" x2="31.95" y2="35.1"/><line class="cls-3" x1="16.9" y1="40.04" x2="25.07" y2="40.04"/><line class="cls-3" x1="31" y1="40.04" x2="37.26" y2="40.04"/><line class="cls-3" x1="27.25" y1="44.97" x2="34.26" y2="44.97"/><line class="cls-3" x1="31.26" y1="49.9" x2="37.43" y2="49.9"/><line class="cls-3" x1="25.25" y1="54.84" x2="31.26" y2="54.84"/><line class="cls-3" x1="42.74" y1="25.24" x2="50.75" y2="25.24"/><line class="cls-3" x1="37.57" y1="30.17" x2="45.74" y2="30.17"/><line class="cls-3" x1="44.83" y1="35.1" x2="50.83" y2="35.1"/><line class="cls-3" x1="59.38" y1="35.1" x2="62.64" y2="35.1"/><line class="cls-3" x1="53.63" y1="40.04" x2="59.64" y2="40.04"/><line class="cls-3" x1="50.48" y1="44.97" x2="54.65" y2="44.97"/><line class="cls-3" x1="58.93" y1="44.97" x2="63.1" y2="44.97"/><line class="cls-3" x1="46.56" y1="49.9" x2="52.56" y2="49.9"/><line class="cls-3" x1="56.87" y1="54.84" x2="59.88" y2="54.84"/><line class="cls-3" x1="20.78" y1="44.97" x2="22.96" y2="44.97"/></svg>