<svg id="Lag_1" data-name="Lag 1" xmlns="http://www.w3.org/2000/svg" viewBox="0 0 80 80"><defs><style>.cls-1{fill:#fff;}.cls-2{fill:#272525;}.cls-3{fill:none;}.cls-3,.cls-4{stroke:#272425;stroke-miterlimit:10;}.cls-4{fill:#272425;stroke-width:0.2px;}</style></defs><title>keyboard-ctrl</title><rect class="cls-1" x="1" y="1" width="78" height="78"/><path class="cls-2" d="M78,2V78H2V2H78m2-2H0V80H80V0Z"/><rect id="key" class="cls-3" x="36" y="27.25" width="8" height="25.5"/><rect id="key-2" data-name="key" class="cls-3" x="28" y="27.25" width="8" height="25.5"/><rect id="key-3" data-name="key" class="cls-3" x="20" y="27.25" width="8" height="25.5"/><rect id="key-4" data-name="key" class="cls-3" x="12" y="27.25" width="8" height="25.5"/><rect id="key-5" data-name="key" class="cls-3" x="60" y="27.25" width="8" height="25.5"/><rect id="key-6" data-name="key" class="cls-3" x="52" y="27.25" width="8" height="25.5"/><rect id="key-7" data-name="key" class="cls-3" x="44" y="27.25" width="8" height="25.5"/><rect id="black_key" data-name="black key" class="cls-4" x="57.32" y="27.25" width="5.36" height="17.28"/><rect id="black_key-2" data-name="black key" class="cls-4" x="49.32" y="27.25" width="5.36" height="17.28"/><rect id="black_key-3" data-name="black key" class="cls-4" x="41.32" y="27.25" width="5.36" height="17.28"/><rect id="black_key-4" data-name="black key" class="cls-4" x="25.32" y="27.25" width="5.36" height="17.28"/><rect id="black_key-5" data-name="black key" class="cls-4" x="17.32" y="27.25" width="5.36" height="17.28"/></svg>