<svg id="Lag_1" data-name="Lag 1" xmlns="http://www.w3.org/2000/svg" viewBox="0 0 103.9 103.9"><defs><style>.cls-1,.cls-5{fill:#fff;}.cls-2,.cls-4{fill:#272525;}.cls-3{fill:none;}.cls-3,.cls-5{stroke:#272525;stroke-linecap:round;stroke-linejoin:round;}.cls-4{font-size:12px;font-family:AvenirNext-DemiBold, Avenir Next;font-weight:700;}</style></defs><title>logic-nand</title><rect class="cls-1" x="16.21" y="16.22" width="71.47" height="71.47" transform="translate(-21.52 51.95) rotate(-45)"/><path class="cls-2" d="M52,2.83,101.07,52,52,101.07,2.83,52,52,2.83M52,0,0,52l52,52L103.9,52,52,0Z"/><line class="cls-3" x1="84.02" y1="47.76" x2="75.02" y2="47.76"/><path class="cls-1" d="M37.82,63.26v-31H56.06a15.5,15.5,0,0,1,0,31H37.82Z"/><path class="cls-2" d="M56,32.76h.08a15,15,0,0,1,0,30H38.32v-30H56m.09-1H37.32v32H56.07a16,16,0,0,0,0-32Z"/><line class="cls-3" x1="37.37" y1="37.84" x2="28.37" y2="37.84"/><line class="cls-3" x1="37.37" y1="57.68" x2="28.37" y2="57.68"/><path class="cls-2" d="M56.13,50.46l2,2H56.19l-.94-1a3.42,3.42,0,0,1-1,.82,3.14,3.14,0,0,1-1.52.33,3.81,3.81,0,0,1-1.08-.16,2.63,2.63,0,0,1-.91-.47,2.22,2.22,0,0,1-.62-.77,2.32,2.32,0,0,1-.23-1.08,2.24,2.24,0,0,1,.15-.84,2.5,2.5,0,0,1,.42-.68,2.93,2.93,0,0,1,.59-.52,5.7,5.7,0,0,1,.69-.37,3.85,3.85,0,0,1-.67-.89,2.08,2.08,0,0,1-.25-1,1.94,1.94,0,0,1,.21-.93,2,2,0,0,1,.55-.66,2.39,2.39,0,0,1,.77-.37,3.15,3.15,0,0,1,.87-.12,3.22,3.22,0,0,1,.88.12,2.06,2.06,0,0,1,.75.39,1.81,1.81,0,0,1,.52.64,1.91,1.91,0,0,1,.2.91,1.86,1.86,0,0,1-.14.75,2,2,0,0,1-.37.62,2.39,2.39,0,0,1-.55.5,4.09,4.09,0,0,1-.68.38l1.4,1.46,1-1.55h1.64Zm-3.6-1.76a2.28,2.28,0,0,0-.45.2,1.53,1.53,0,0,0-.37.29,1.11,1.11,0,0,0-.26.4,1.29,1.29,0,0,0-.1.53,1.2,1.2,0,0,0,.13.57,1.14,1.14,0,0,0,.33.42,1.56,1.56,0,0,0,.45.26,1.51,1.51,0,0,0,.5.09,1.72,1.72,0,0,0,.9-.23,2.59,2.59,0,0,0,.68-.65Zm.7-3.76a1,1,0,0,0-.7.26.91.91,0,0,0-.29.69,1.34,1.34,0,0,0,.2.69,2.54,2.54,0,0,0,.55.66,3,3,0,0,0,.47-.24,1.45,1.45,0,0,0,.39-.3,1.18,1.18,0,0,0,.26-.37.92.92,0,0,0,.1-.44,1,1,0,0,0-1-1Z"/><text class="cls-4" transform="translate(33.77 79.96)">NAND</text><circle class="cls-5" cx="74.29" cy="47.76" r="2.77"/></svg>