<svg id="Lag_1" data-name="Lag 1" xmlns="http://www.w3.org/2000/svg" viewBox="0 0 103.9 103.9"><defs><style>.cls-1{fill:#fff;}.cls-2,.cls-4,.cls-6{fill:#272525;}.cls-3{fill:none;stroke:#272525;stroke-linecap:round;stroke-linejoin:round;}.cls-4,.cls-6{font-size:12px;font-family:AvenirNext-DemiBold, Avenir Next;font-weight:700;}.cls-4{letter-spacing:-0.03em;}.cls-5{letter-spacing:0em;}</style></defs><title>logic-xor</title><rect class="cls-1" x="16.21" y="16.22" width="71.47" height="71.47" transform="translate(-21.52 51.95) rotate(-45)"/><path class="cls-2" d="M52,2.83,101.07,52,52,101.07,2.83,52,52,2.83M52,0,0,52l52,52L103.9,52,52,0Z"/><line class="cls-3" x1="78.25" y1="47.78" x2="69.25" y2="47.78"/><path class="cls-1" d="M38.35,62.78c2.11-3.31,3.4-8.92,3.4-15s-1.29-11.68-3.4-15H52.42c10.45,0,18.67,13,19.85,15-1.17,2-9.34,15-19.85,15Z"/><path class="cls-2" d="M52.42,33.29c9.81,0,17.67,11.91,19.26,14.5-1.58,2.58-9.4,14.49-19.26,14.49H39.23c1.91-3.45,3-8.69,3-14.5s-1.11-11-3-14.49H52.42m0-1h-15c2.37,3.05,3.86,8.93,3.86,15.49s-1.49,12.45-3.86,15.5h15c11.74,0,20.43-15.5,20.43-15.5S64.1,32.29,52.42,32.29Z"/><text class="cls-4" transform="translate(39.28 79.96)">X<tspan class="cls-5" x="7.6" y="0">OR</tspan></text><line class="cls-3" x1="40.56" y1="37.86" x2="31.56" y2="37.86"/><line class="cls-3" x1="40.56" y1="57.7" x2="31.56" y2="57.7"/><text class="cls-6" transform="translate(47.79 51.67)">=1</text><path class="cls-3" d="M34.86,63.28c2.36-3.05,3.85-8.94,3.85-15.5s-1.49-12.44-3.85-15.49"/></svg>