<svg id="Lag_1" data-name="Lag 1" xmlns="http://www.w3.org/2000/svg" viewBox="0 0 103.9 103.9"><defs><style>.cls-1{fill:#fff;}.cls-2,.cls-3{fill:#272525;}.cls-3{font-size:12px;font-family:AvenirNext-DemiBold, Avenir Next;font-weight:700;}.cls-4{fill:none;stroke:#272525;stroke-linecap:round;stroke-linejoin:round;}</style></defs><title>logic-and</title><rect class="cls-1" x="16.21" y="16.22" width="71.47" height="71.47" transform="translate(-21.52 51.95) rotate(-45)"/><path class="cls-2" d="M52,2.83,101.07,52,52,101.07,2.83,52,52,2.83M52,0,0,52l52,52L103.9,52,52,0Z"/><text class="cls-3" transform="translate(38.45 79.96)">AND</text><line class="cls-4" x1="77.18" y1="47.78" x2="68.18" y2="47.78"/><path class="cls-1" d="M38.17,63.28v-31H56.42a15.5,15.5,0,0,1,0,31H38.17Z"/><path class="cls-2" d="M56.33,32.78h.08a15,15,0,0,1,0,30H38.67v-30H56.33m.09-1H37.67v32H56.42a16,16,0,0,0,0-32Z"/><line class="cls-4" x1="37.72" y1="37.86" x2="28.72" y2="37.86"/><line class="cls-4" x1="37.72" y1="57.7" x2="28.72" y2="57.7"/><path class="cls-2" d="M55.34,50.46l2,2H55.4l-.93-1a3.42,3.42,0,0,1-1,.82,3.15,3.15,0,0,1-1.53.33,3.92,3.92,0,0,1-1.08-.16,2.58,2.58,0,0,1-.9-.47,2.37,2.37,0,0,1-.63-.77,2.45,2.45,0,0,1-.23-1.08,2.24,2.24,0,0,1,.15-.84,2.77,2.77,0,0,1,.42-.68,2.93,2.93,0,0,1,.59-.52,5.7,5.7,0,0,1,.69-.37,4.15,4.15,0,0,1-.67-.89,2.2,2.2,0,0,1-.25-1,1.94,1.94,0,0,1,.21-.93,2,2,0,0,1,.56-.66,2.24,2.24,0,0,1,.76-.37,3.26,3.26,0,0,1,.87-.12,3.3,3.3,0,0,1,.89.12,2.24,2.24,0,0,1,.75.39,1.93,1.93,0,0,1,.52.64,2.13,2.13,0,0,1,.06,1.66,2.27,2.27,0,0,1-.37.62,2.45,2.45,0,0,1-.56.5,4,4,0,0,1-.67.38l1.39,1.46,1-1.55h1.65Zm-3.6-1.76a2.28,2.28,0,0,0-.45.2,1.76,1.76,0,0,0-.37.29,1.26,1.26,0,0,0-.26.4,1.47,1.47,0,0,0-.09.53,1.32,1.32,0,0,0,.12.57,1.4,1.4,0,0,0,.33.42,1.61,1.61,0,0,0,.46.26,1.46,1.46,0,0,0,.49.09,1.72,1.72,0,0,0,.9-.23,2.32,2.32,0,0,0,.68-.65Zm.7-3.76a1,1,0,0,0-.7.26.91.91,0,0,0-.29.69,1.34,1.34,0,0,0,.2.69,2.76,2.76,0,0,0,.55.66,3.58,3.58,0,0,0,.48-.24,1.57,1.57,0,0,0,.38-.3,1.41,1.41,0,0,0,.27-.37,1,1,0,0,0,.09-.44.94.94,0,0,0-.27-.67A1,1,0,0,0,52.44,44.94Z"/></svg>