<svg id="Lag_1" data-name="Lag 1" xmlns="http://www.w3.org/2000/svg" viewBox="0 0 80 80"><defs><style>.cls-1{fill:#fff;}.cls-2{fill:#272525;}.cls-3,.cls-4,.cls-5,.cls-6,.cls-7{fill:none;}.cls-3,.cls-6{stroke:#272425;stroke-linecap:round;stroke-linejoin:round;}.cls-3{stroke-width:2px;}.cls-4,.cls-5,.cls-7{stroke:#272525;stroke-miterlimit:10;}.cls-4,.cls-6{stroke-dasharray:4 4;}.cls-7{stroke-width:1.5px;}</style></defs><title>env-dadsr-loop</title><rect class="cls-1" x="1" y="1" width="78" height="78"/><path class="cls-2" d="M78,2V78H2V2H78m2-2H0V80H80V0Z"/><polyline class="cls-3" points="71.93 48.13 56.95 32 45.69 32 34.51 15.88 23.34 48.13 9.63 48.13"/><polyline class="cls-4" points="1.9 48.13 10.63 48.13 78.43 48.13"/><line class="cls-5" x1="10.93" y1="38" x2="18.62" y2="38"/><polygon class="cls-2" points="18.3 35.57 18.3 40.43 20.73 38 18.3 35.57"/><line class="cls-6" x1="9.44" y1="48.13" x2="9.44" y2="11"/><path class="cls-7" d="M28.44,68.25H24.76a5.15,5.15,0,0,1-5.13-5.13v-.25a5.15,5.15,0,0,1,5.13-5.14h30.8a5.15,5.15,0,0,1,5.14,5.14v.25a5.15,5.15,0,0,1-5.14,5.13H34.16"/><polygon class="cls-2" points="34.65 71.9 34.65 64.61 31.01 68.25 34.65 71.9"/></svg>