<svg id="Lag_1" data-name="Lag 1" xmlns="http://www.w3.org/2000/svg" viewBox="0 0 80 80"><defs><style>.cls-1{fill:#fff;}.cls-2{fill:#272525;}.cls-3,.cls-4,.cls-5{fill:none;}.cls-3{stroke:#272425;stroke-linecap:round;stroke-linejoin:round;stroke-width:2px;}.cls-4,.cls-5{stroke:#272525;stroke-miterlimit:10;}.cls-4{stroke-dasharray:4 4;}.cls-5{stroke-width:1.5px;}</style></defs><title>env-ahdsr-loop</title><rect class="cls-1" x="1" y="1" width="78" height="78"/><path class="cls-2" d="M78,2V78H2V2H78m2-2H0V80H80V0Z"/><polyline class="cls-3" points="10.63 48.13 23.21 15.88 34.16 16 44.16 32 58.16 32 72.16 48.13"/><line class="cls-4" x1="1.89" y1="48.5" x2="78.43" y2="48.5"/><path class="cls-5" d="M28.44,68.25H24.76a5.15,5.15,0,0,1-5.13-5.13v-.25a5.15,5.15,0,0,1,5.13-5.14h30.8a5.15,5.15,0,0,1,5.14,5.14v.25a5.15,5.15,0,0,1-5.14,5.13H34.16"/><polygon class="cls-2" points="34.65 71.9 34.65 64.61 31.01 68.25 34.65 71.9"/></svg>