<svg id="Lag_1" data-name="Lag 1" xmlns="http://www.w3.org/2000/svg" viewBox="0 0 80 80"><defs><style>.cls-1{fill:#fff;}.cls-2{fill:#272525;}.cls-3,.cls-4,.cls-5{fill:none;stroke:#272525;}.cls-3{stroke-linecap:round;stroke-linejoin:round;stroke-width:1.91px;}.cls-4,.cls-5{stroke-miterlimit:10;}.cls-4{stroke-dasharray:4 4;}.cls-5{stroke-width:1.5px;}</style></defs><title>env-ad-loop</title><rect class="cls-1" x="1" y="1" width="78" height="78"/><path class="cls-2" d="M78,2V78H2V2H78m2-2H0V80H80V0Z"/><polyline class="cls-3" points="12.41 48 19.71 16 67.59 48"/><line class="cls-4" x1="1.89" y1="48.5" x2="78.43" y2="48.5"/><path class="cls-5" d="M28.28,68.25H24.6a5.15,5.15,0,0,1-5.13-5.13v-.25a5.15,5.15,0,0,1,5.13-5.14H55.4a5.15,5.15,0,0,1,5.13,5.14v.25a5.15,5.15,0,0,1-5.13,5.13H34"/><polygon class="cls-2" points="34.49 71.9 34.49 64.61 30.84 68.25 34.49 71.9"/></svg>