<svg id="Lag_1" data-name="Lag 1" xmlns="http://www.w3.org/2000/svg" viewBox="0 0 80 80"><defs><style>.cls-1{fill:#fff;}.cls-2{fill:#272525;}.cls-3,.cls-4{fill:none;stroke:#272525;stroke-linecap:round;stroke-linejoin:round;}.cls-3{stroke-width:2.26px;}.cls-4{stroke-width:2px;}</style></defs><title>microphone-input</title><g id="circle"><circle class="cls-1" cx="40" cy="40" r="39"/><path class="cls-2" d="M40,2A38,38,0,1,1,2,40,38,38,0,0,1,40,2m0-2A40,40,0,1,0,80,40,40,40,0,0,0,40,0Z"/></g><path class="cls-3" d="M49,40.31a9,9,0,1,1-18,0V22.14a9,9,0,1,1,18,0Z"/><path class="cls-3" d="M26,44.29a14.75,14.75,0,0,0,13.88,9.93h.32A14.75,14.75,0,0,0,54,44.29"/><line class="cls-3" x1="40" y1="54.22" x2="40" y2="66.91"/><path class="cls-4" d="M49,40.31a9,9,0,1,1-18,0V22.14a9,9,0,1,1,18,0Z"/><path class="cls-4" d="M26,44.29a14.75,14.75,0,0,0,13.88,9.93h.32A14.75,14.75,0,0,0,54,44.29"/><line class="cls-4" x1="40" y1="54.22" x2="40" y2="66.91"/><line class="cls-3" x1="29.01" y1="66.91" x2="50.99" y2="66.91"/></svg>