<svg id="Lag_1" data-name="Lag 1" xmlns="http://www.w3.org/2000/svg" viewBox="0 0 103.9 103.9"><defs><style>.cls-1{fill:#fff;}.cls-2{fill:#272525;}.cls-3,.cls-4{fill:none;stroke:#272525;stroke-miterlimit:10;}.cls-3{stroke-width:1.5px;}.cls-4{stroke-width:1.55px;}</style></defs><title>cv-mixer</title><rect class="cls-1" x="16.21" y="16.22" width="71.47" height="71.47" transform="translate(-21.52 51.95) rotate(-45)"/><path class="cls-2" d="M52,2.83,101.07,52,52,101.07,2.83,52,52,2.83M52,0,0,52l52,52L103.9,52,52,0Z"/><line class="cls-3" x1="86.77" y1="51.74" x2="29.09" y2="51.74"/><polyline class="cls-4" points="29.09 34.91 58.92 34.91 58.92 68.56 29.09 68.56"/><line class="cls-3" x1="38.52" y1="73.83" x2="49.04" y2="63.31"/><polygon class="cls-2" points="46.12 61.08 51.27 66.23 51.27 61.08 46.12 61.08"/><line class="cls-3" x1="38.52" y1="57" x2="49.04" y2="46.48"/><polygon class="cls-2" points="46.12 44.25 51.27 49.4 51.27 44.25 46.12 44.25"/><line class="cls-3" x1="38.52" y1="40.18" x2="49.04" y2="29.66"/><polygon class="cls-2" points="46.12 27.42 51.27 32.58 51.27 27.43 46.12 27.42"/></svg>