<svg id="Lag_1" data-name="Lag 1" xmlns="http://www.w3.org/2000/svg" viewBox="0 0 84.06 88"><defs><style>.cls-1{fill:#fff;}.cls-2{fill:#272525;}.cls-3,.cls-4{fill:none;stroke:#272525;stroke-miterlimit:10;}.cls-3{stroke-width:2px;}</style></defs><title>mixer</title><polygon class="cls-1" points="1 1.65 81.9 44 1 86.35 1 1.65"/><path class="cls-2" d="M2,3.3,79.75,44,2,84.7V3.3M0,0V88L84.06,44,0,0Z"/><line class="cls-3" x1="17.82" y1="38.51" x2="24.49" y2="23.39"/><polygon class="cls-2" points="20.95 22.37 27.62 25.31 25.76 20.5 20.95 22.37"/><g id="resistor"><path class="cls-4" d="M10,31.07h5a.87.87,0,0,0,.75-.51l1-2.78c.11-.28.28-.28.39,0l2.26,6.09c.11.28.29.29.42,0l2.69-6.11c.12-.28.33-.29.48,0l3.33,6.15c.14.26.33.24.42,0l1.85-6.07c.09-.29.26-.3.38,0l2.69,6.11c.12.28.31.27.42,0L33,31.58a.86.86,0,0,1,.74-.51h3.88a.56.56,0,0,1,.56.55s.14,26,0,26H33.73a.86.86,0,0,0-.74.51l-.87,2.29c-.11.28-.3.29-.42,0L29,54.27c-.12-.28-.29-.27-.38,0l-1.85,6.07c-.09.28-.28.3-.42,0L23,54.25c-.15-.27-.36-.26-.48,0l-2.69,6.11c-.13.28-.31.27-.42,0l-2.26-6.09c-.11-.28-.28-.28-.39,0l-1,2.78a.87.87,0,0,1-.75.51H10"/></g><line class="cls-3" x1="17.82" y1="65.01" x2="24.49" y2="49.89"/><polygon class="cls-2" points="20.95 48.87 27.62 51.81 25.76 47 20.95 48.87"/><line class="cls-4" x1="38.16" y1="44.12" x2="56.99" y2="44.15"/></svg>