<svg id="Lag_1" data-name="Lag 1" xmlns="http://www.w3.org/2000/svg" viewBox="0 0 80 80"><defs><style>.cls-1{fill:#fff;}.cls-2{fill:#272525;}.cls-3{fill:none;stroke:#272525;stroke-miterlimit:10;stroke-width:1.48px;}</style></defs><title>noise</title><g id="circle"><circle class="cls-1" cx="40" cy="40" r="39"/><path class="cls-2" d="M40,2A38,38,0,1,1,2,40,38,38,0,0,1,40,2m0-2A40,40,0,1,0,80,40,40,40,0,0,0,40,0Z"/></g><polyline class="cls-3" points="63.71 37.39 60.55 55.64 57.39 20.02 54.23 42.61 51.06 23.98 47.9 59.98 43.92 34.2 41.58 51.3 37.31 37.2 34.83 45.88 32.1 24.36 28.94 51.3 25.78 37.39 22.61 55.64 19.45 20.02 16.29 42.61"/></svg>