<svg id="Lag_1" data-name="Lag 1" xmlns="http://www.w3.org/2000/svg" viewBox="0 0 80 80"><defs><style>.cls-1{fill:#fff;}.cls-2{fill:#272525;}.cls-3,.cls-4{fill:none;stroke:#272525;}.cls-3{stroke-linecap:round;stroke-linejoin:round;stroke-width:2px;}.cls-4{stroke-miterlimit:10;stroke-width:1.5px;}</style></defs><title>vco-pwm</title><g id="circle"><circle class="cls-1" cx="40" cy="40" r="39"/><path class="cls-2" d="M40,2A38,38,0,1,1,2,40,38,38,0,0,1,40,2m0-2A40,40,0,1,0,80,40,40,40,0,0,0,40,0Z"/></g><polyline id="square_wave" data-name="square wave" class="cls-3" points="16.96 55.05 16.96 24.96 40 24.96 40 55.05 63.03 55.05 63.03 24.96"/><rect class="cls-2" x="42.68" y="24" width="1.86" height="2"/><rect class="cls-2" x="46.4" y="24" width="2" height="2"/><path class="cls-2" d="M48.4,52.22h-2V50.35h2Zm0-3.74h-2V46.6h2Zm0-3.75h-2V42.86h2Zm0-3.75h-2V39.11h2Zm0-3.74h-2V35.37h2Zm0-3.75h-2V31.62h2Zm0-3.74h-2V27.88h2Z"/><path class="cls-2" d="M32.64,51.75H30.53V49.6h2.11Zm0-4.31H30.53V45.29h2.11Zm0-4.3H30.53V41h2.11Zm0-4.31H30.53V36.68h2.11Zm0-4.3H30.53V32.38h2.11Zm0-4.31H30.53V28.07h2.11Z"/><rect class="cls-2" x="30.53" y="53.9" width="2.1" height="2.1"/><rect class="cls-2" x="34.73" y="53.9" width="2.1" height="2.1"/><line class="cls-4" x1="31.98" y1="17.9" x2="46.67" y2="17.9"/><polygon class="cls-2" points="32.47 14.26 32.47 21.54 28.82 17.9 32.47 14.26"/><polygon class="cls-2" points="46.18 14.26 46.18 21.54 49.83 17.9 46.18 14.26"/></svg>