<svg id="Lag_1" data-name="Lag 1" xmlns="http://www.w3.org/2000/svg" viewBox="0 0 84.06 88"><defs><style>.cls-1{fill:#fff;}.cls-2{fill:#272525;}.cls-3,.cls-4{fill:none;stroke:#272525;stroke-linecap:round;stroke-linejoin:round;stroke-width:1.5px;}.cls-4{stroke-dasharray:2.92 2.92;}</style></defs><title>phase-shifter</title><polygon class="cls-1" points="1 1.65 81.9 44 1 86.35 1 1.65"/><path class="cls-2" d="M2,3.3,79.75,44,2,84.7V3.3M0,0V88L84.06,44,0,0Z"/><path class="cls-3" d="M18.64,41.52C21.2,35.73,23.77,30,27.2,30c3,0,5.71,5.78,8.53,11.57s5.75,11.57,9.17,11.57,6-5.68,8.5-11.41"/><path class="cls-4" d="M1.25,41.52C3.82,35.73,6.39,30,9.82,30c6,0,10.85,23.14,17.7,23.14,3.4,0,5.95-5.68,8.5-11.41"/><path class="cls-4" d="M37.76,41.52C40.33,35.73,42.9,30,46.33,30c6,0,10.85,23.14,17.7,23.14,3.39,0,6-5.68,8.49-11.41"/><line class="cls-3" x1="11.33" y1="58.69" x2="32.74" y2="58.69"/><polygon class="cls-2" points="11.82 55.05 11.82 62.32 8.18 58.69 11.82 55.05"/><polygon class="cls-2" points="32.25 55.05 32.25 62.32 35.88 58.69 32.25 55.05"/></svg>