<svg id="Lag_1" data-name="Lag 1" xmlns="http://www.w3.org/2000/svg" viewBox="0 0 103.9 103.9"><defs><style>.cls-1{fill:#fff;}.cls-2{fill:#272525;}</style></defs><title>precision-adder</title><rect class="cls-1" x="16.22" y="16.21" width="71.47" height="71.47" transform="translate(-21.52 51.95) rotate(-45)"/><path class="cls-2" d="M52,2.83,101.07,52,52,101.07,2.83,52,52,2.83M52,0,0,52l52,52L103.9,52,52,0Z"/><path class="cls-2" d="M50.77,51.9V46.84h2.35V51.9h5.06v2.34H53.12V59.3H50.77V54.24H45.71V51.9Z"/><path class="cls-2" d="M59.85,43.75H63.1l4.48,12.54h.09l4.54-12.54h3.12L68.8,60H66.29Z"/><path class="cls-2" d="M28.56,43.75h3.25l4.48,12.54h.09l4.53-12.54H44L37.51,60H35Z"/></svg>