<svg id="Lag_1" data-name="Lag 1" xmlns="http://www.w3.org/2000/svg" viewBox="0 0 103.9 103.9"><defs><style>.cls-1{fill:#fff;}.cls-2{fill:#272525;}.cls-3,.cls-4,.cls-5{fill:none;stroke-miterlimit:10;}.cls-3,.cls-4{stroke:#272525;stroke-width:0.75px;}.cls-3{stroke-dasharray:4 3;}.cls-5{stroke:#272425;stroke-width:2px;}</style></defs><title>quantizer</title><rect class="cls-1" x="16.21" y="16.22" width="71.47" height="71.47" transform="translate(-21.52 51.95) rotate(-45)"/><path class="cls-2" d="M52,2.83,101.07,52,52,101.07,2.83,52,52,2.83M52,0,0,52l52,52L103.9,52,52,0Z"/><line id="sample_interval" data-name="sample interval" class="cls-3" x1="74.96" y1="30.45" x2="29.51" y2="30.45"/><line id="sample_interval-2" data-name="sample interval" class="cls-3" x1="74.96" y1="60.45" x2="29.51" y2="60.45"/><line id="sample_interval-3" data-name="sample interval" class="cls-3" x1="74.96" y1="45.45" x2="29.51" y2="45.45"/><line id="sample_interval-4" data-name="sample interval" class="cls-3" x1="74.96" y1="75.45" x2="29.51" y2="75.45"/><path class="cls-4" d="M26.87,63.19S39.21,30.45,48.29,30.45c7.69,0,15.93,27.91,28,36.49"/><polyline class="cls-5" points="28.01 60.38 35.3 60.38 35.3 45.45 48.3 45.45 48.29 30.45 62.63 30.45 62.63 45.45 70.3 45.45 70.3 60.38 76.26 60.38"/></svg>