<svg id="Lag_1" data-name="Lag 1" xmlns="http://www.w3.org/2000/svg" xmlns:xlink="http://www.w3.org/1999/xlink" viewBox="0 0 84.06 88"><defs><style>.cls-1{fill:#fff;}.cls-2{fill:#272525;}.cls-3{fill:url(#Ikke-navngivet_forløb_151);}.cls-4{fill:none;stroke:#272525;stroke-linecap:round;stroke-linejoin:round;stroke-width:1.5px;}</style><linearGradient id="Ikke-navngivet_forløb_151" x1="54.52" y1="41.53" x2="10.3" y2="41.53" gradientUnits="userSpaceOnUse"><stop offset="0" stop-color="#fff"/><stop offset="0.12" stop-color="#e7e7e7"/><stop offset="0.38" stop-color="#a7a7a7"/><stop offset="0.76" stop-color="#444"/><stop offset="1"/></linearGradient></defs><title>reverb</title><polygon class="cls-1" points="1 1.65 81.9 44 1 86.35 1 1.65"/><path class="cls-2" d="M2,3.3,79.75,44,2,84.7V3.3M0,0V88L84.06,44,0,0Z"/><path class="cls-3" d="M35.26,53.76c-3.43,0-6-6.45-8.84-12.24S20.88,30,17.22,29.28l34.69.25,27.5,14.58-1.25.5L60.75,53.78H41.15S35.28,53.81,35.26,53.76Z"/><path class="cls-4" d="M8.76,41.52C11.33,35.73,13.9,30,17.32,30c3,0,5.71,5.78,8.53,11.57S31.6,53.09,35,53.09,41,47.41,43.52,41.68"/><line class="cls-4" x1="10.64" y1="58.69" x2="32.99" y2="58.69"/><polygon class="cls-2" points="32.5 55.05 32.5 62.32 36.13 58.69 32.5 55.05"/></svg>