<svg id="Lag_1" data-name="Lag 1" xmlns="http://www.w3.org/2000/svg" viewBox="0 0 80 80"><defs><style>.cls-1{fill:#fff;}.cls-2{fill:#272525;}.cls-3{fill:none;stroke:#272525;stroke-linecap:round;stroke-linejoin:round;}</style></defs><title>sample-player</title><g id="circle"><circle class="cls-1" cx="40" cy="39.98" r="39"/><path class="cls-2" d="M40,2A38,38,0,1,1,2,40,38,38,0,0,1,40,2m0-2A40,40,0,1,0,80,40,40,40,0,0,0,40,0Z"/></g><polygon class="cls-2" points="37.53 39.96 19.33 26.38 19.33 53.54 37.53 39.96"/><line class="cls-3" x1="46.38" y1="37.27" x2="46.38" y2="42.7"/><line class="cls-3" x1="48.22" y1="18.6" x2="48.22" y2="61.37"/><line class="cls-3" x1="50.06" y1="22.65" x2="50.06" y2="57.32"/><line class="cls-3" x1="51.89" y1="29.01" x2="51.89" y2="50.96"/><line class="cls-3" x1="53.73" y1="33.98" x2="53.73" y2="45.99"/><line class="cls-3" x1="55.57" y1="36.41" x2="55.57" y2="43.56"/><line class="cls-3" x1="57.41" y1="38.29" x2="57.41" y2="41.68"/><line class="cls-3" x1="59.25" y1="39.52" x2="59.25" y2="40.45"/><line class="cls-3" x1="43.35" y1="39.99" x2="62.12" y2="39.99"/></svg>