<svg id="Lag_1" data-name="Lag 1" xmlns="http://www.w3.org/2000/svg" viewBox="0 0 80 80"><defs><style>.cls-1{fill:#fff;}.cls-2{fill:#272525;}.cls-3{fill:none;stroke:#272525;stroke-linecap:round;stroke-linejoin:round;}</style></defs><title>sample-rec</title><g id="circle"><circle class="cls-1" cx="40" cy="40" r="39"/><path class="cls-2" d="M40,2A38,38,0,1,1,2,40,38,38,0,0,1,40,2m0-2A40,40,0,1,0,80,40,40,40,0,0,0,40,0Z"/></g><circle class="cls-2" cx="54.21" cy="40" r="12.03"/><line class="cls-3" x1="21.64" y1="37.29" x2="21.64" y2="42.71"/><line class="cls-3" x1="23.48" y1="18.61" x2="23.48" y2="61.39"/><line class="cls-3" x1="25.32" y1="22.66" x2="25.32" y2="57.34"/><line class="cls-3" x1="27.16" y1="29.03" x2="27.16" y2="50.97"/><line class="cls-3" x1="28.99" y1="34" x2="28.99" y2="46"/><line class="cls-3" x1="30.83" y1="36.42" x2="30.83" y2="43.58"/><line class="cls-3" x1="32.67" y1="38.31" x2="32.67" y2="41.69"/><line class="cls-3" x1="34.51" y1="39.53" x2="34.51" y2="40.47"/><line class="cls-3" x1="18.61" y1="40" x2="37.38" y2="40"/></svg>