<svg id="Lag_1" data-name="Lag 1" xmlns="http://www.w3.org/2000/svg" viewBox="0 0 103.9 103.9"><defs><style>.cls-1{fill:#fff;}.cls-2{fill:#272525;}.cls-3,.cls-4,.cls-5{fill:none;stroke-miterlimit:10;}.cls-3,.cls-4{stroke:#272525;stroke-width:0.75px;}.cls-3{stroke-dasharray:4 3;}.cls-5{stroke:#272425;stroke-width:2px;}</style></defs><title>sample-and-hold</title><rect class="cls-1" x="16.22" y="16.22" width="71.47" height="71.47" transform="translate(-21.52 51.95) rotate(-45)"/><path class="cls-2" d="M52,2.83,101.07,52,52,101.07,2.83,52,52,2.83M52,0,0,52l52,52L103.9,52,52,0Z"/><circle class="cls-2" cx="74.73" cy="70.67" r="1.88"/><line id="sample_interval" data-name="sample interval" class="cls-3" x1="74.73" y1="70.67" x2="74.73" y2="25.22"/><circle class="cls-2" cx="44.73" cy="70.67" r="1.88"/><line id="sample_interval-2" data-name="sample interval" class="cls-3" x1="44.73" y1="70.67" x2="44.73" y2="25.22"/><circle class="cls-2" cx="59.73" cy="70.67" r="1.88"/><line id="sample_interval-3" data-name="sample interval" class="cls-3" x1="59.73" y1="70.67" x2="59.73" y2="25.22"/><circle class="cls-2" cx="29.73" cy="70.67" r="1.88"/><line id="sample_interval-4" data-name="sample interval" class="cls-3" x1="29.73" y1="70.67" x2="29.73" y2="25.22"/><path class="cls-4" d="M23.31,63.19S35.65,31.26,44.73,31.26,63.67,63.17,79.64,63.17"/><polyline class="cls-5" points="29.73 48.93 44.73 48.93 44.73 31.26 59.73 31.26 59.73 47.22 74.73 47.22 74.73 62.15"/></svg>