<svg id="Lag_1" data-name="Lag 1" xmlns="http://www.w3.org/2000/svg" viewBox="0 0 103.9 103.9"><defs><style>.P\&amp;T-streger,.cls-1,.cls-4,.cls-5,.cls-6{fill:none;stroke:#272525;}.cls-1{stroke-miterlimit:10;stroke-dasharray:3.9 3.9;}.cls-2{fill:#fff;}.cls-3{fill:#272525;}.P\&amp;T-streger{stroke-linecap:round;stroke-width:2px;}.P\&amp;T-streger,.cls-4,.cls-5,.cls-6{stroke-linejoin:round;}.cls-5{stroke-dasharray:3.67 2.75;}.cls-6{stroke-dasharray:3.99 2.99;}</style></defs><title>slew-limiter</title><line class="cls-1" x1="24.67" y1="72.94" x2="82.07" y2="72.94"/><rect class="cls-2" x="16.22" y="16.22" width="71.47" height="71.47" transform="translate(-21.52 51.95) rotate(-45)"/><path class="cls-3" d="M52,2.83,101.07,52,52,101.07,2.83,52,52,2.83M52,0,0,52l52,52L103.9,52,52,0Z"/><polyline class="P&amp;T-streger" points="30.4 72.94 44.89 72.94 61.59 31.01 74.48 31.01"/><line class="cls-4" x1="69.51" y1="31.01" x2="67.51" y2="31.01"/><line class="cls-5" x1="64.75" y1="31.01" x2="46.87" y2="31.01"/><polyline class="cls-4" points="45.49 31.01 43.49 31.01 43.49 33.01"/><line class="cls-6" x1="43.49" y1="36.01" x2="43.49" y2="69.44"/><line class="cls-4" x1="43.49" y1="70.94" x2="43.49" y2="72.94"/></svg>