<svg id="Lag_1" data-name="Lag 1" xmlns="http://www.w3.org/2000/svg" viewBox="0 0 80 80"><defs><style>.cls-1{fill:#fff;}.cls-2{fill:#272525;}.cls-3,.cls-4,.cls-5{fill:none;}.cls-3,.cls-5{stroke:#272525;}.cls-3,.cls-4{stroke-miterlimit:10;}.cls-3{stroke-dasharray:4 4;}.cls-4{stroke:#d35b51;stroke-width:1px;}.cls-5{stroke-linecap:round;stroke-linejoin:round;stroke-width:2px;}</style></defs><title>random-smooth</title><rect class="cls-1" x="1" y="1" width="78" height="78"/><path class="cls-2" d="M78,2V78H2V2H78m2-2H0V80H80V0Z"/><line class="cls-3" x1="1.73" y1="40" x2="78.27" y2="40"/><path class="cls-4" d="M10.28,39.42s1.37-7.68,3.72-7.68c4.46,0,2.58,15.35,5.91,15.35s2.67-23,8.27-23c6.93,0,6.8,38.37,12.93,38.37,4.28,0,2.15-17.82,7.86-17.82,3.94,0,4,9.24,7.29,9.24C61.59,53.86,59,28,64.31,28c4,0,4.8,11.42,4.8,11.42"/><path class="cls-5" d="M10.28,39.42s1.37-7.68,3.72-7.68c4.46,0,2.58,15.35,5.91,15.35s2.67-23,8.27-23c6.93,0,6.8,38.37,12.93,38.37,4.28,0,2.15-17.82,7.86-17.82,3.94,0,4,9.24,7.29,9.24C61.59,53.86,59,28,64.31,28c4,0,4.8,11.42,4.8,11.42"/></svg>