<svg id="Lag_1" data-name="Lag 1" xmlns="http://www.w3.org/2000/svg" viewBox="0 0 80 80"><defs><style>.cls-1{fill:#fff;}.cls-2{fill:#272525;}</style></defs><title>master-clock</title><rect class="cls-1" x="1" y="1" width="78" height="78"/><path class="cls-2" d="M78,2V78H2V2H78m2-2H0V80H80V0Z"/><path class="cls-2" d="M27.87,58.83h3.32a3.73,3.73,0,0,1,.94.12,2.37,2.37,0,0,1,.84.37,2,2,0,0,1,.59.66,2,2,0,0,1,.23,1,1.77,1.77,0,0,1-.41,1.19,2.31,2.31,0,0,1-1.07.67v0a2.17,2.17,0,0,1,1.32.63,1.83,1.83,0,0,1,.52,1.38A2.25,2.25,0,0,1,33.87,66a2.19,2.19,0,0,1-.72.76,3.13,3.13,0,0,1-1,.41,5.29,5.29,0,0,1-1.19.13H27.87Zm1.52,3.46h1.34a1.88,1.88,0,0,0,1.15-.3,1,1,0,0,0,.4-.85.87.87,0,0,0-.41-.82,2.6,2.6,0,0,0-1.27-.24H29.39Zm0,3.77h1.35a5,5,0,0,0,.63,0,1.72,1.72,0,0,0,.61-.17,1.26,1.26,0,0,0,.47-.38,1.08,1.08,0,0,0,.19-.68,1,1,0,0,0-.46-.93,2.75,2.75,0,0,0-1.38-.27H29.39Z"/><path class="cls-2" d="M35.64,58.83h2.77a6.56,6.56,0,0,1,1.32.13,2.82,2.82,0,0,1,1,.44,2.08,2.08,0,0,1,.65.76,2.62,2.62,0,0,1,.22,1.13,2.41,2.41,0,0,1-.26,1.19,2.11,2.11,0,0,1-.71.77,3.09,3.09,0,0,1-1,.43,5.85,5.85,0,0,1-1.28.13H37.15v3.52H35.64Zm2.57,3.71a5.24,5.24,0,0,0,.7,0,1.77,1.77,0,0,0,.6-.2,1,1,0,0,0,.42-.37,1.09,1.09,0,0,0,.16-.63,1,1,0,0,0-.16-.6,1,1,0,0,0-.41-.37,1.56,1.56,0,0,0-.59-.17,4.94,4.94,0,0,0-.68,0h-1.1v2.44Z"/><path class="cls-2" d="M43,58.83h2.36l2.21,6h0l2.18-6h2.38v8.5h-1.5V60.5h0L48,67.33H47L44.42,60.5h0v6.83H43Z"/><circle class="cls-2" cx="19.9" cy="31.55" r="3.72"/><circle class="cls-2" cx="33.3" cy="31.55" r="3.72"/><circle class="cls-2" cx="46.7" cy="31.55" r="3.72"/><circle class="cls-2" cx="60.1" cy="31.55" r="3.72"/></svg>