<svg id="Lag_1" data-name="Lag 1" xmlns="http://www.w3.org/2000/svg" viewBox="0 0 80 80"><defs><style>.cls-1{fill:#fff;}.cls-2{fill:#272525;}.cls-3{fill:none;stroke:#272525;stroke-linecap:round;stroke-linejoin:round;stroke-width:2px;}</style></defs><title>speech-synthesis</title><g id="circle"><circle class="cls-1" cx="40" cy="40" r="39"/><path class="cls-2" d="M40,2A38,38,0,1,1,2,40,38,38,0,0,1,40,2m0-2A40,40,0,1,0,80,40,40,40,0,0,0,40,0Z"/></g><polygon class="cls-3" points="15.59 40 31.81 31.23 40 34.61 47.76 31.23 63.98 40 15.59 40"/><polygon class="cls-3" points="63.98 40 63.98 40.89 48.03 57.78 31.81 57.78 15.59 40.89 15.59 40 31.76 50.74 47.93 50.74 63.98 40"/><polygon class="cls-2" points="16.83 40 31.76 49.74 47.93 49.74 63.98 40 16.83 40"/></svg>