<svg id="Lag_1" data-name="Lag 1" xmlns="http://www.w3.org/2000/svg" viewBox="0 0 80 80"><defs><style>.cls-1{fill:#fff;}.cls-2{fill:#272525;}.cls-3,.cls-4,.cls-5{fill:none;}.cls-3,.cls-5{stroke:#272525;}.cls-3,.cls-4{stroke-miterlimit:10;}.cls-3{stroke-dasharray:4 4;}.cls-4{stroke:#d35b51;stroke-width:1.01px;}.cls-5{stroke-linecap:round;stroke-linejoin:round;stroke-width:2.03px;}</style></defs><title>random-stepped</title><rect class="cls-1" x="1" y="1" width="78" height="78"/><path class="cls-2" d="M78,2V78H2V2H78m2-2H0V80H80V0Z"/><line class="cls-3" x1="1.73" y1="40" x2="78.27" y2="40"/><polyline class="cls-4" points="11.38 39.42 11.38 31.75 19.26 31.75 19.26 47.09 27.14 47.09 27.14 24.07 35.03 24.07 35.03 62.44 42.91 62.44 42.91 44.62 50.8 44.62 50.8 54.77 58.68 54.77 58.68 28 66.56 28 66.56 39.42"/><polyline class="cls-5" points="11.38 39.42 11.38 31.75 19.26 31.75 19.26 47.09 27.14 47.09 27.14 24.07 35.03 24.07 35.03 62.44 42.91 62.44 42.91 44.62 50.8 44.62 50.8 54.77 58.68 54.77 58.68 28 66.56 28 66.56 39.42"/></svg>