<svg id="Lag_1" data-name="Lag 1" xmlns="http://www.w3.org/2000/svg" viewBox="0 0 80 80"><defs><style>.cls-1{fill:#fff;}.cls-2{fill:#272525;}.cls-3,.cls-4{fill:none;stroke:#272525;stroke-linejoin:round;}.cls-3{stroke-linecap:round;stroke-width:2px;}.cls-4{stroke-dasharray:4 3;}</style></defs><title>physical-mod-string</title><g id="circle"><circle class="cls-1" cx="40" cy="40" r="39"/><path class="cls-2" d="M40,2A38,38,0,1,1,2,40,38,38,0,0,1,40,2m0-2A40,40,0,1,0,80,40,40,40,0,0,0,40,0Z"/></g><line class="cls-3" x1="8" y1="40" x2="72" y2="40"/><path class="cls-4" d="M13.08,35.67C18.77,33.46,28.7,32,40,32c11,0,20.78,1.4,26.53,3.53"/><path class="cls-4" d="M11.36,32.86C16.6,27.61,27.46,24,40,24c13,0,24.21,3.88,29.21,9.46"/><path class="cls-4" d="M66.92,44.33C61.23,46.54,51.3,48,40,48c-11,0-20.78-1.4-26.53-3.53"/><path class="cls-4" d="M68.64,47.14C63.4,52.39,52.54,56,40,56c-13,0-24.21-3.88-29.21-9.46"/></svg>