<svg id="Lag_1" data-name="Lag 1" xmlns="http://www.w3.org/2000/svg" viewBox="0 0 84.06 88"><defs><style>.cls-1{fill:#fff;}.cls-2{fill:#272525;}.cls-3{fill:none;stroke:#272525;stroke-miterlimit:10;stroke-width:1.5px;}</style></defs><title>switch</title><polygon class="cls-1" points="1 1.65 81.9 44 1 86.35 1 1.65"/><path class="cls-2" d="M2,3.3,79.75,44,2,84.7V3.3M0,0V88L84.06,44,0,0Z"/><line class="cls-3" x1="7.21" y1="44.18" x2="28.87" y2="44.18"/><line class="cls-3" x1="43.79" y1="44.18" x2="61.15" y2="44.18"/><polygon class="cls-2" points="60.27 47.17 65.45 44.18 60.27 41.19 60.27 47.17"/><line class="cls-3" x1="7.21" y1="28.36" x2="28.87" y2="28.36"/><line class="cls-3" x1="28.87" y1="59.99" x2="7.21" y2="59.99"/><circle class="cls-2" cx="28.87" cy="59.99" r="1.88"/><circle class="cls-2" cx="28.87" cy="44.18" r="1.88"/><circle class="cls-2" cx="43.79" cy="44.18" r="1.88"/><circle class="cls-2" cx="28.87" cy="28.36" r="1.88"/><line class="cls-3" x1="28.87" y1="59.99" x2="43.79" y2="44.18"/></svg>