<svg id="Lag_1" data-name="Lag 1" xmlns="http://www.w3.org/2000/svg" viewBox="0 0 80 80"><defs><style>.cls-1{fill:#fff;}.cls-2{fill:#272525;}.cls-3,.cls-4{fill:none;stroke:#272525;}.cls-3{stroke-miterlimit:10;stroke-dasharray:4 4;}.cls-4{stroke-linecap:round;stroke-linejoin:round;stroke-width:2.11px;}</style></defs><title>lfo-bpm-triangle</title><rect class="cls-1" x="1" y="1" width="78" height="78"/><path class="cls-2" d="M78,2V78H2V2H78m2-2H0V80H80V0Z"/><line class="cls-3" x1="1.73" y1="40" x2="78.27" y2="40"/><polyline class="cls-4" points="13.42 40 26.71 24.03 40 40 53.29 55.97 66.58 40"/><path class="cls-2" d="M27.87,60.5h3.32a3.73,3.73,0,0,1,.94.12A2.37,2.37,0,0,1,33,61a1.92,1.92,0,0,1,.59.67,2,2,0,0,1,.23,1,1.76,1.76,0,0,1-.41,1.19,2.31,2.31,0,0,1-1.07.67v0a2.22,2.22,0,0,1,1.32.63,1.83,1.83,0,0,1,.52,1.38,2.25,2.25,0,0,1-.28,1.17,2.19,2.19,0,0,1-.72.76,3.13,3.13,0,0,1-1,.41,5.29,5.29,0,0,1-1.19.13H27.87ZM29.39,64h1.34a1.88,1.88,0,0,0,1.15-.3,1,1,0,0,0,.4-.85.87.87,0,0,0-.41-.82,2.6,2.6,0,0,0-1.27-.24H29.39Zm0,3.77h1.35c.19,0,.4,0,.63,0a2,2,0,0,0,.61-.18,1.17,1.17,0,0,0,.47-.38,1.07,1.07,0,0,0,.19-.67,1,1,0,0,0-.46-.94,2.77,2.77,0,0,0-1.38-.26H29.39Z"/><path class="cls-2" d="M35.64,60.5h2.77a5.87,5.87,0,0,1,1.32.14,2.64,2.64,0,0,1,1,.43,2,2,0,0,1,.65.77A2.54,2.54,0,0,1,41.61,63a2.38,2.38,0,0,1-.26,1.19,2.22,2.22,0,0,1-.71.78,3.36,3.36,0,0,1-1.06.42,5.69,5.69,0,0,1-1.27.13H37.15V69H35.64Zm2.57,3.71a5.24,5.24,0,0,0,.7,0,2,2,0,0,0,.6-.19,1.11,1.11,0,0,0,.42-.38,1.09,1.09,0,0,0,.16-.63,1,1,0,0,0-.16-.6,1,1,0,0,0-.41-.37,1.77,1.77,0,0,0-.59-.17,5,5,0,0,0-.68,0h-1.1v2.43Z"/><path class="cls-2" d="M43,60.5h2.36l2.21,6h0l2.18-6h2.37V69h-1.5V62.17h0L48,69H47l-2.54-6.83h0V69H43Z"/></svg>