<svg id="Lag_1" data-name="Lag 1" xmlns="http://www.w3.org/2000/svg" viewBox="0 0 80 80"><defs><style>.cls-1,.cls-4{fill:#fff;}.cls-2{fill:#272525;}.cls-3{fill:#272425;}.cls-3,.cls-4,.cls-5{stroke:#272425;stroke-miterlimit:10;}.cls-5{fill:none;}</style></defs><title>trigger-pattern-generator</title><rect class="cls-1" x="1" y="1" width="78" height="78"/><path class="cls-2" d="M78,2V78H2V2H78m2-2H0V80H80V0Z"/><rect class="cls-3" x="63.63" y="47.88" width="7.88" height="7.88"/><rect class="cls-4" x="55.75" y="47.88" width="7.88" height="7.88"/><rect class="cls-3" x="47.88" y="47.88" width="7.88" height="7.88"/><rect class="cls-5" x="40" y="47.88" width="7.88" height="7.88"/><rect class="cls-5" x="32.12" y="47.88" width="7.88" height="7.88"/><rect class="cls-5" x="24.25" y="47.88" width="7.88" height="7.88"/><rect class="cls-3" x="16.37" y="47.88" width="7.88" height="7.88"/><rect class="cls-3" x="8.49" y="47.88" width="7.88" height="7.88"/><rect class="cls-5" x="63.63" y="40" width="7.88" height="7.88"/><rect class="cls-5" x="55.75" y="40" width="7.88" height="7.88"/><rect class="cls-5" x="47.88" y="40" width="7.88" height="7.88"/><rect class="cls-3" x="40" y="40" width="7.88" height="7.88"/><rect class="cls-5" x="32.12" y="40" width="7.88" height="7.88"/><rect class="cls-3" x="24.25" y="40" width="7.88" height="7.88"/><rect class="cls-5" x="16.37" y="40" width="7.88" height="7.88"/><rect class="cls-3" x="8.49" y="40" width="7.88" height="7.88"/><rect class="cls-5" x="63.63" y="32.12" width="7.88" height="7.88"/><rect class="cls-5" x="55.75" y="32.12" width="7.88" height="7.88"/><rect class="cls-3" x="47.88" y="32.12" width="7.88" height="7.88"/><rect class="cls-3" x="40" y="32.12" width="7.88" height="7.88"/><rect class="cls-5" x="32.12" y="32.12" width="7.88" height="7.88"/><rect class="cls-5" x="24.25" y="32.12" width="7.88" height="7.88"/><rect class="cls-3" x="16.37" y="32.12" width="7.88" height="7.88"/><rect class="cls-4" x="8.49" y="32.12" width="7.88" height="7.88"/><rect class="cls-5" x="63.63" y="24.24" width="7.88" height="7.88"/><rect class="cls-3" x="55.75" y="24.24" width="7.88" height="7.88"/><rect class="cls-5" x="47.88" y="24.24" width="7.88" height="7.88"/><rect class="cls-3" x="40" y="24.24" width="7.88" height="7.88"/><rect class="cls-5" x="32.12" y="24.24" width="7.88" height="7.88"/><rect class="cls-3" x="24.25" y="24.24" width="7.88" height="7.88"/><rect class="cls-5" x="16.37" y="24.24" width="7.88" height="7.88"/><rect class="cls-3" x="8.49" y="24.24" width="7.88" height="7.88"/></svg>