<svg id="Lag_1" data-name="Lag 1" xmlns="http://www.w3.org/2000/svg" viewBox="0 0 103.9 103.9"><defs><style>.cls-1{fill:#fff;}.cls-2{fill:#272525;}.cls-3{fill:none;stroke:#272525;stroke-miterlimit:10;stroke-width:1.5px;}</style></defs><title>cv-utility-mixer</title><rect class="cls-1" x="16.22" y="16.21" width="71.47" height="71.47" transform="translate(-21.52 51.95) rotate(-45)"/><path class="cls-2" d="M52,2.83,101.07,52,52,101.07,2.83,52,52,2.83M52,0,0,52l52,52L103.9,52,52,0Z"/><path class="cls-2" d="M36,66.13V63.35h1.29v2.78H40v1.28H37.27v2.78H36V67.41H33.21V66.13Z"/><path class="cls-2" d="M41.76,71.85l-1-.38,3.94-9.78,1,.4Z"/><path class="cls-2" d="M50.4,67.35H45.06V66.19H50.4Z"/><path class="cls-2" d="M50.65,62.31h1.78l2.46,6.87h0l2.48-6.87h1.72l-3.59,8.92H54.18Z"/><g id="resistor"><path class="cls-3" d="M38.56,40.05h5a.86.86,0,0,0,.74-.52l1.06-2.78c.11-.28.28-.28.39,0L48,42.84c.11.29.29.29.41,0l2.69-6.11c.12-.27.34-.28.49,0l3.33,6.15c.14.27.33.25.42,0l1.85-6.06c.08-.29.26-.3.38,0l2.69,6.11c.12.28.31.28.41,0l.88-2.28a.85.85,0,0,1,.74-.51h3.88a.55.55,0,0,1,.55.54s.14,26,0,26h-5"/></g><line class="cls-3" x1="45.95" y1="48.59" x2="53.19" y2="32.04"/><polygon class="cls-2" points="48.26 48.88 44.65 51.54 44.15 47.08 48.26 48.88"/><polygon class="cls-2" points="50.54 31.28 55.55 33.48 54.14 29.88 50.54 31.28"/><line class="cls-3" x1="66.71" y1="53.09" x2="85.54" y2="53.12"/></svg>