<svg id="Lag_1" data-name="Lag 1" xmlns="http://www.w3.org/2000/svg" viewBox="0 0 80 80"><defs><style>.cls-1{fill:#fff;}.cls-2{fill:#272525;}.cls-3{fill:none;stroke:#272525;stroke-miterlimit:10;stroke-width:2px;}</style></defs><title>voltage-slider</title><rect class="cls-1" x="1" y="1" width="78" height="78"/><path class="cls-2" d="M78,2V78H2V2H78m2-2H0V80H80V0Z"/><path class="cls-2" d="M22,19.88V17.24h1.23v2.64h2.64V21.1H23.27v2.64H22V21.1H19.4V19.88Z"/><path class="cls-2" d="M26.53,15.63h1.69l2.34,6.54h.05L33,15.63h1.63l-3.41,8.5H29.89Z"/><path class="cls-2" d="M26.29,62.21H22.21v-1.1h4.08Z"/><path class="cls-2" d="M26.53,56.12h1.69l2.34,6.54h.05L33,56.12h1.63L31.2,64.61H29.89Z"/><line class="cls-3" x1="46.46" y1="17.79" x2="46.46" y2="62.18"/><rect class="cls-2" x="37.68" y="37.24" width="17.57" height="5.49" transform="translate(92.93 79.96) rotate(-180)"/></svg>