<svg id="Lag_1" data-name="Lag 1" xmlns="http://www.w3.org/2000/svg" viewBox="0 0 80 80"><defs><style>.cls-1{fill:#fff;}.cls-2{fill:#272525;}.cls-3,.cls-4{fill:none;stroke:#272525;stroke-linecap:round;stroke-linejoin:round;}.cls-4{stroke-width:0.93px;}</style></defs><title>vco-wavetable</title><g id="circle"><circle class="cls-1" cx="40" cy="40" r="39"/><path class="cls-2" d="M40,2A38,38,0,1,1,2,40,38,38,0,0,1,40,2m0-2A40,40,0,1,0,80,40,40,40,0,0,0,40,0Z"/></g><polyline id="sawtooth" class="cls-3" points="58.91 57.13 58.91 45.91 50.64 57.13 50.64 45.91 42.56 57.13"/><polyline class="cls-4" points="20.11 28.48 24.29 22.11 28.48 28.48 32.67 34.85 36.85 28.48"/><rect class="cls-3" x="16.96" y="16.96" width="23.04" height="23.04"/><rect class="cls-3" x="40" y="16.96" width="23.04" height="23.04"/><rect class="cls-3" x="16.96" y="40" width="23.04" height="23.04"/><rect class="cls-3" x="40" y="40" width="23.04" height="23.04"/><path class="cls-3" d="M35.63,50.91C35.3,53.06,34.94,55,34.3,55c-1.46,0-1.46-6.73-2.91-6.73s-1.46,9.79-2.91,9.79S27,45.21,25.57,45.21,24.12,55,22.66,55c-.85,0-1.2-2.33-1.64-4.25"/><polyline id="square_wave" data-name="square wave" class="cls-3" points="44.37 34.53 44.37 22.43 49.65 30.57 49.65 34.53 53.94 30.38 53.94 22.43 58.91 30.48 58.91 34.53"/></svg>