<svg id="Lag_1" data-name="Lag 1" xmlns="http://www.w3.org/2000/svg" viewBox="0 0 84.06 88"><defs><style>.cls-1{fill:#fff;}.cls-2{fill:#272525;}.cls-3,.cls-4,.cls-5{fill:none;}.cls-3,.cls-4{stroke:#272525;stroke-linecap:round;stroke-linejoin:round;}.cls-4{stroke-dasharray:2.87 2.87;}.cls-5{stroke:#272425;stroke-miterlimit:10;stroke-width:2px;}</style></defs><title>wavefolder</title><polygon class="cls-1" points="1 1.65 81.9 44 1 86.35 1 1.65"/><path class="cls-2" d="M2,3.3,79.75,44,2,84.7V3.3M0,0V88L84.06,44,0,0Z"/><path class="cls-3" d="M6.68,43.8c0-.48.09-1,.14-1.45"/><path class="cls-4" d="M7.16,39.49C9.5,22.29,16.72,5,24.09,42.19c6.45,32.52,16.68,20.34,17.72,2.9"/><path class="cls-3" d="M41.87,43.65c0-.48,0-1,0-1.46"/><ellipse class="cls-1" cx="6.91" cy="43.98" rx="1.94" ry="1.74"/><ellipse class="cls-1" cx="41.95" cy="42.24" rx="1.94" ry="1.74"/><path class="cls-5" d="M6.74,43.88c.18-7.94,3.75-21.87,5.39-10.81C13.87,44.78,16,43.41,19.2,31.69c1.19-4.32,2-1.13,5.12,11.39,2.54,10.08,4.08,19.1,6.56,7.77,1.93-8.8,2.19-8.51,5.11,0,2.67,7.75,4.26,9,5.91-8.66"/></svg>